# xmcd
#
# Track frame offsets:
#	150
#	12373
#	53016
#	80405
#	122245
#	135677
#	162901
#	183764
#	206498
#	243518
#	271877
#
# Disc length: 3895 seconds
#
# Revision: 1
# Processed by: cddbd v1.5.2PL0 Copyright (c) Steve Scherf et al.
# Submitted via: audiograbber 1.83.01
#
DISCID=8f0f350b
DTITLE=Grateful Dead - 70-12-12 Santa Rosa Fairgrounds, Santa Rosa CA
DYEAR=1900
DGENRE=
TTITLE0=Me and My Uncle
TTITLE1=Truckin'
TTITLE2=Brokedown Palace
TTITLE3=Hard To Handle
TTITLE4=Mama Tried
TTITLE5=China Cat Sunflower
TTITLE6=I Know You Rider
TTITLE7=Big Railroad Blues
TTITLE8=King Bee
TTITLE9=Sugar Magnolia
TTITLE10=Casey Jones
EXTD=
EXTT0=
EXTT1=
EXTT2=
EXTT3=
EXTT4=
EXTT5=
EXTT6=
EXTT7=
EXTT8=
EXTT9=
EXTT10=
PLAYORDER=
